<svg version="1.1" id="Uploaded to svgrepo.com" xmlns="http://www.w3.org/2000/svg" xmlns:xlink="http://www.w3.org/1999/xlink" viewBox="0 0 32 32" xml:space="preserve" fill="#000000" transform="matrix(-1, 0, 0, 1, 0, 0)"><g id="SVGRepo_bgCarrier" stroke-width="0"></g><g id="SVGRepo_tracerCarrier" stroke-linecap="round" stroke-linejoin="round"></g><g id="SVGRepo_iconCarrier"> <style type="text/css"> .stone_een{fill:#ffffff;} .st0{fill:#ffffff;} </style> <path class="stone_een" d="M30.5,30.5c-0.148,0.148-0.344,0.224-0.54,0.224c-0.176,0-0.353-0.061-0.497-0.184l-11.084-9.505 l2.659-2.659l9.501,11.087C30.799,29.766,30.782,30.218,30.5,30.5z M24.293,12.293l-0.879-0.879 c-0.391-0.391-0.902-0.586-1.414-0.586s-1.024,0.195-1.414,0.586L20.45,11.55l-8.807-7.206c0.717-0.785,0.702-1.999-0.057-2.758 l-0.879-0.879c-0.391-0.391-1.024-0.391-1.414,0L0.707,9.293c-0.391,0.391-0.391,1.024,0,1.414l0.879,0.879 c0.389,0.389,0.897,0.582,1.406,0.582c0.485,0,0.97-0.176,1.352-0.525l7.206,8.807l-0.136,0.136c-0.781,0.781-0.781,2.047,0,2.828 l0.879,0.879c0.391,0.391,1.024,0.391,1.414,0l10.586-10.586C24.683,13.317,24.683,12.683,24.293,12.293z"></path> </g></svg>